<svg
		xmlns="http://www.w3.org/2000/svg"
		xmlns:xlink="http://www.w3.org/1999/xlink"
		height="599.43" width="764.81" version="1.1">
	<style>
		.arcs {
			stroke-width: 4px;
			stroke: #888888;
			fill: none;
		}

		.small-dots {
			fill: #888888;
		}

		.big-dots {
			fill: #444444;
		}

		.big-dots:hover {
			fill: #000000;
			cursor: pointer;
		}

		.big-dots:target {
			fill: #c80000;
		}
	</style>
	<g transform="translate(134.37402,-244.75982)">
		<!-- Arcs -->
		<path class="arcs" d="m487.2,565.16c0,48.923-19.83,93.214-51.891,125.27"/>
		<path class="arcs" d="M184.76,690.43c-32.06-32.06-51.89-76.35-51.89-125.27"/>
		<path class="arcs" d="m132.87,565.16c0-48.923,19.83-93.214,51.891-125.27"/>
		<path class="arcs" d="m184.76,439.88c32.061-32.061,76.352-51.891,125.27-51.891"/>
		<path class="arcs" d="m435.31,439.88c32.061,32.061,51.891,76.352,51.891,125.27"/>
		<path class="arcs" d="m247.4,502.52c16.03-16.03,38.176-25.945,62.637-25.945"/>
		<path class="arcs" d="m372.68,502.52c16.03,16.03,25.945,38.176,25.945,62.637"/>
		<path class="arcs" d="m398.62,565.16c0,24.461-9.915,46.607-25.945,62.637"/>
		<path class="arcs" d="m310.04,653.74c-24.461,0-46.607-9.915-62.637-25.945"/>
		<path class="arcs" d="M247.4,627.79c-16.03-16.03-25.94-38.17-25.94-62.63"/>
		<path class="arcs" d="m221.46,565.16c0-24.461,9.915-46.607,25.945-62.637"/>
		<path class="arcs" d="m434.06,441.14-62.008,62.008"/>
		<path class="arcs" d="m310.04,742.32,0-88.583"/>
		<path class="arcs" d="m310.04,476.57,0,88.583"/>
		<path class="arcs" d="m310.04,565.16,62.008,62.008"/>
		<path class="arcs" d="m44.291,565.16c0-73.384,29.745-139.82,77.836-187.91"/>
		<path class="arcs" d="m122.13,377.25c48.091-48.091,114.53-77.836,187.91-77.836"/>
		<path class="arcs" d="m497.95,377.25c48.091,48.091,77.836,114.53,77.836,187.91"/>
		<path class="arcs" d="m575.79,565.16c0,73.384-29.745,139.82-77.836,187.91"/>
		<path class="arcs" d="m310.04,830.91c-73.384,0-139.82-29.745-187.91-77.836"/>
		<path class="arcs" d="m310.04,299.41,0,88.583"/>
		<path class="arcs" d="M496.06,751.18,434.06,689.17"/>
		<path class="arcs" d="m310.04,830.91,0-88.583"/>
		<path class="arcs" d="m124.02,751.18,62.008-62.008"/>
		<path class="arcs" d="m44.291,565.16-177.17,0"/>
		<path class="arcs" d="M496.06,379.13,628.94,246.26"/>
		<!-- end Arcs -->

		<!-- Small Dots -->
		<path class="small-dots" d="m256.89,441.14c0,14.677-11.898,26.575-26.575,26.575s-26.575-11.898-26.575-26.575,11.898-26.575,26.575-26.575,26.575,11.898,26.575,26.575z" transform="matrix(0.5,0,0,0.5,194.88189,167.42124)"/>
		<path class="small-dots" d="m256.89,441.14c0,14.677-11.898,26.575-26.575,26.575s-26.575-11.898-26.575-26.575,11.898-26.575,26.575-26.575,26.575,11.898,26.575,26.575z" transform="matrix(0.35355339,0.35355339,-0.35355339,0.35355339,509.85271,202.48685)"/>
		<path class="small-dots" d="m256.89,441.14c0,14.677-11.898,26.575-26.575,26.575s-26.575-11.898-26.575-26.575,11.898-26.575,26.575-26.575,26.575,11.898,26.575,26.575z" transform="matrix(0,0.5,-0.5,0,707.77558,449.99997)"/>
		<path class="small-dots" d="m256.89,441.14c0,14.677-11.898,26.575-26.575,26.575s-26.575-11.898-26.575-26.575,11.898-26.575,26.575-26.575,26.575,11.898,26.575,26.575z" transform="matrix(-0.5,0,0,-0.5,425.19685,962.89364)"/>
		<path class="small-dots" d="m256.89,441.14c0,14.677-11.898,26.575-26.575,26.575s-26.575-11.898-26.575-26.575,11.898-26.575,26.575-26.575,26.575,11.898,26.575,26.575z" transform="matrix(-0.35355339,-0.35355339,0.35355339,-0.35355339,110.22603,927.82811)"/>
		<path class="small-dots" d="m256.89,441.14c0,14.677-11.898,26.575-26.575,26.575s-26.575-11.898-26.575-26.575,11.898-26.575,26.575-26.575,26.575,11.898,26.575,26.575z" transform="matrix(0,-0.5,0.5,0,-87.696838,680.31493)"/>
		<path class="small-dots" d="m256.89,441.14c0,14.677-11.898,26.575-26.575,26.575s-26.575-11.898-26.575-26.575,11.898-26.575,26.575-26.575,26.575,11.898,26.575,26.575z" transform="matrix(0.35355339,0.35355339,-0.35355339,0.35355339,447.2153,265.12426)"/>
		<path class="small-dots" d="m256.89,441.14c0,14.677-11.898,26.575-26.575,26.575s-26.575-11.898-26.575-26.575,11.898-26.575,26.575-26.575,26.575,11.898,26.575,26.575z" transform="matrix(-0.35355339,0.35355339,-0.35355339,-0.35355339,610.07256,702.33339)"/>
		<path class="small-dots" d="m256.89,441.14c0,14.677-11.898,26.575-26.575,26.575s-26.575-11.898-26.575-26.575,11.898-26.575,26.575-26.575,26.575,11.898,26.575,26.575z" transform="matrix(-0.35355339,-0.35355339,0.35355339,-0.35355339,172.86344,865.19071)"/>
		<path class="small-dots" d="m256.89,441.14c0,14.677-11.898,26.575-26.575,26.575s-26.575-11.898-26.575-26.575,11.898-26.575,26.575-26.575,26.575,11.898,26.575,26.575z" transform="matrix(0,-0.5,0.5,0,0.88583182,680.31494)"/>
		<path class="small-dots" d="m256.89,441.14c0,14.677-11.898,26.575-26.575,26.575s-26.575-11.898-26.575-26.575,11.898-26.575,26.575-26.575,26.575,11.898,26.575,26.575z" transform="matrix(0.35355339,-0.35355339,0.35355339,0.35355339,10.006176,427.98153)"/>
		<path class="small-dots" d="m256.89,441.14c0,14.677-11.898,26.575-26.575,26.575s-26.575-11.898-26.575-26.575,11.898-26.575,26.575-26.575,26.575,11.898,26.575,26.575z" transform="matrix(0.5,0,0,0.5,194.88189,344.58659)"/>
		<path class="small-dots" d="m575.79,578.44c-7.3384,0-13.287-5.949-13.287-13.287,0-7.3384,5.949-13.287,13.287-13.287,7.3384,0,13.287,5.949,13.287,13.287,0,7.3384-5.949,13.287-13.287,13.287z"/>
		<path class="small-dots" d="m488.56,762.47c-5.189-5.1891-5.189-13.602,0-18.791s13.602-5.189,18.791,0,5.189,13.602-0.00001,18.791-13.602,5.189-18.791,0z"/>
		<path class="small-dots" d="m296.75,830.91c0-7.3384,5.949-13.287,13.287-13.287,7.3384,0,13.287,5.949,13.287,13.287,0,7.3384-5.949,13.287-13.287,13.287-7.3384,0-13.287-5.949-13.287-13.287z"/>
		<path class="small-dots" d="m131.52,367.85c5.1891,5.1891,5.1891,13.602,0.00001,18.791s-13.602,5.189-18.791,0-5.189-13.602,0-18.791,13.602-5.189,18.791,0z"/>
		<!-- end Small Dots -->

		<!-- Big Dots -->
		<a xlink:href="#step-1"><path class="big-dots" id="step-1" d="m44.291,538.58c14.677,0,26.575,11.898,26.575,26.575s-11.898,26.575-26.575,26.575-26.575-11.898-26.575-26.575,11.898-26.575,26.575-26.575z"/></a>
		<path class="big-dots" id="step-2" d="m256.89,441.14c0,14.677-11.898,26.575-26.575,26.575s-26.575-11.898-26.575-26.575,11.898-26.575,26.575-26.575,26.575,11.898,26.575,26.575z" transform="translate(79.724413,-141.7323)"/>
		<path class="big-dots" id="step-3" d="m256.89,441.14c0,14.677-11.898,26.575-26.575,26.575s-26.575-11.898-26.575-26.575,11.898-26.575,26.575-26.575,26.575,11.898,26.575,26.575z" transform="matrix(0.70710678,-0.70710678,0.70710678,0.70710678,-290.02702,290.8056)"/>
		<path class="big-dots" id="step-4" d="m103.34,734.28c10.378-10.378,27.204-10.378,37.582-0.00001s10.378,27.204,0,37.582-27.204,10.378-37.582,0-10.378-27.204,0-37.582z"/>
		<path class="big-dots" id="step-5" d="m256.89,441.14c0,14.677-11.898,26.575-26.575,26.575s-26.575-11.898-26.575-26.575,11.898-26.575,26.575-26.575,26.575,11.898,26.575,26.575z" transform="matrix(-1,0,0,-1,540.35433,1094.8818)"/>
		<path class="big-dots" id="step-6" d="m256.89,441.14c0,14.677-11.898,26.575-26.575,26.575s-26.575-11.898-26.575-26.575,11.898-26.575,26.575-26.575,26.575,11.898,26.575,26.575z" transform="translate(79.724413,35.433058)"/>
		<path class="big-dots" id="step-7" d="m256.89,441.14c0,14.677-11.898,26.575-26.575,26.575s-26.575-11.898-26.575-26.575,11.898-26.575,26.575-26.575,26.575,11.898,26.575,26.575z" transform="matrix(0,1,-1,0,839.76377,334.8425)"/>
		<path class="big-dots" id="step-8" d="m256.89,441.14c0,14.677-11.898,26.575-26.575,26.575s-26.575-11.898-26.575-26.575,11.898-26.575,26.575-26.575,26.575,11.898,26.575,26.575z" transform="matrix(-0.70710678,0.70710678,-0.70710678,-0.70710678,910.10576,839.50931)"/>
		<path class="big-dots" id="step-9" d="m516.74,396.04c-10.378,10.378-27.204,10.378-37.582,0.00001s-10.378-27.204,0-37.582,27.204-10.378,37.582,0.00001,10.378,27.204,0,37.582z"/>
		<!-- end Big Dots -->
	</g>
</svg>