<?xml version="1.0" encoding="UTF-8" standalone="no"?>
<!-- Created with Inkscape (http://www.inkscape.org/) -->

<svg
   xmlns:dc="http://purl.org/dc/elements/1.1/"
   xmlns:cc="http://creativecommons.org/ns#"
   xmlns:rdf="http://www.w3.org/1999/02/22-rdf-syntax-ns#"
   xmlns:svg="http://www.w3.org/2000/svg"
   xmlns="http://www.w3.org/2000/svg"
   xmlns:xlink="http://www.w3.org/1999/xlink"
   version="1.1"
   width="744.09448"
   height="1052.3622"
   id="svg2">
  <defs
     id="defs4" />
  <metadata
     id="metadata7">
    <rdf:RDF>
      <cc:Work
         rdf:about="">
        <dc:format>image/svg+xml</dc:format>
        <dc:type
           rdf:resource="http://purl.org/dc/dcmitype/StillImage" />
        <dc:title></dc:title>
      </cc:Work>
    </rdf:RDF>
  </metadata>
  <g
     id="layer1">
    <path
       d="m 256.88976,441.14172 a 26.574802,26.574802 0 1 1 -53.14961,0 26.574802,26.574802 0 1 1 53.14961,0 z"
       transform="translate(79.724414,-53.14962)"
       id="path4057"
       style="fill:#000000;fill-opacity:1;fill-rule:nonzero;stroke:none" />
    <path
       d="m 256.88976,441.14172 a 26.574802,26.574802 0 1 1 -53.14961,0 26.574802,26.574802 0 1 1 53.14961,0 z"
       transform="translate(79.724413,35.433058)"
       id="use4059"
       style="fill:#000000;fill-opacity:1;fill-rule:nonzero;stroke:none" />
    <path
       d="m 256.88976,441.14172 a 26.574802,26.574802 0 1 1 -53.14961,0 26.574802,26.574802 0 1 1 53.14961,0 z"
       transform="matrix(0.70710678,0.70710678,-0.70710678,0.70710678,584.39123,-34.908939)"
       id="use4061"
       style="fill:#000000;fill-opacity:1;fill-rule:nonzero;stroke:none" />
    <path
       d="m 256.88976,441.14172 a 26.574802,26.574802 0 1 1 -53.14961,0 26.574802,26.574802 0 1 1 53.14961,0 z"
       transform="matrix(0,1,-1,0,928.34644,334.84249)"
       id="use4063"
       style="fill:#000000;fill-opacity:1;fill-rule:nonzero;stroke:none" />
    <path
       d="m 256.88976,441.14172 a 26.574802,26.574802 0 1 1 -53.14961,0 26.574802,26.574802 0 1 1 53.14961,0 z"
       transform="matrix(-0.70710678,0.70710678,-0.70710678,-0.70710678,910.10576,839.50931)"
       id="use4065"
       style="fill:#000000;fill-opacity:1;fill-rule:nonzero;stroke:none" />
    <path
       d="m 256.88976,441.14172 a 26.574802,26.574802 0 1 1 -53.14961,0 26.574802,26.574802 0 1 1 53.14961,0 z"
       transform="matrix(-1,0,0,-1,540.35433,1183.4645)"
       id="use4067"
       style="fill:#000000;fill-opacity:1;fill-rule:nonzero;stroke:none" />
    <path
       d="m 256.88976,441.14172 a 26.574802,26.574802 0 1 1 -53.14961,0 26.574802,26.574802 0 1 1 53.14961,0 z"
       transform="matrix(-0.70710678,-0.70710678,0.70710678,-0.70710678,35.68751,1165.2239)"
       id="use4069"
       style="fill:#000000;fill-opacity:1;fill-rule:nonzero;stroke:none" />
    <path
       d="m 256.88976,441.14172 a 26.574802,26.574802 0 1 1 -53.14961,0 26.574802,26.574802 0 1 1 53.14961,0 z"
       transform="matrix(0,-1,1,0,-308.2677,795.47241)"
       id="use4071"
       style="fill:#000000;fill-opacity:1;fill-rule:nonzero;stroke:none" />
    <path
       d="m 256.88976,441.14172 a 26.574802,26.574802 0 1 1 -53.14961,0 26.574802,26.574802 0 1 1 53.14961,0 z"
       transform="matrix(0.70710678,-0.70710678,0.70710678,0.70710678,-290.02702,290.8056)"
       id="use4073"
       style="fill:#000000;fill-opacity:1;fill-rule:nonzero;stroke:none" />
    <path
       d="m 256.88976,441.14172 a 26.574802,26.574802 0 1 1 -53.14961,0 26.574802,26.574802 0 1 1 53.14961,0 z"
       transform="translate(79.724413,35.433058)"
       id="use4075"
       style="fill:#000000;fill-opacity:1;fill-rule:nonzero;stroke:none" />
    <path
       d="m 256.88976,441.14172 a 26.574802,26.574802 0 1 1 -53.14961,0 26.574802,26.574802 0 1 1 53.14961,0 z"
       transform="matrix(0.70710678,0.70710678,-0.70710678,0.70710678,521.75382,27.728475)"
       id="use4077"
       style="fill:#000000;fill-opacity:1;fill-rule:nonzero;stroke:none" />
    <path
       d="m 256.88976,441.14172 a 26.574802,26.574802 0 1 1 -53.14961,0 26.574802,26.574802 0 1 1 53.14961,0 z"
       transform="matrix(0,1,-1,0,839.76377,334.8425)"
       id="use4079"
       style="fill:#000000;fill-opacity:1;fill-rule:nonzero;stroke:none" />
    <path
       d="m 256.88976,441.14172 a 26.574802,26.574802 0 1 1 -53.14961,0 26.574802,26.574802 0 1 1 53.14961,0 z"
       transform="matrix(-0.70710678,0.70710678,-0.70710678,-0.70710678,847.46835,776.87191)"
       id="use4081"
       style="fill:#000000;fill-opacity:1;fill-rule:nonzero;stroke:none" />
    <path
       d="m 256.88976,441.14172 a 26.574802,26.574802 0 1 1 -53.14961,0 26.574802,26.574802 0 1 1 53.14961,0 z"
       transform="matrix(-1,0,0,-1,540.35433,1094.8818)"
       id="use4083"
       style="fill:#000000;fill-opacity:1;fill-rule:nonzero;stroke:none" />
    <path
       d="m 256.88976,441.14172 a 26.574802,26.574802 0 1 1 -53.14961,0 26.574802,26.574802 0 1 1 53.14961,0 z"
       transform="matrix(-0.70710678,-0.70710678,0.70710678,-0.70710678,98.324922,1102.5865)"
       id="use4085"
       style="fill:#000000;fill-opacity:1;fill-rule:nonzero;stroke:none" />
    <path
       d="m 256.88976,441.14172 a 26.574802,26.574802 0 1 1 -53.14961,0 26.574802,26.574802 0 1 1 53.14961,0 z"
       transform="matrix(0,-1,1,0,-219.68503,795.47242)"
       id="use4087"
       style="fill:#000000;fill-opacity:1;fill-rule:nonzero;stroke:none" />
    <path
       d="m 256.88976,441.14172 a 26.574802,26.574802 0 1 1 -53.14961,0 26.574802,26.574802 0 1 1 53.14961,0 z"
       transform="matrix(0.70710678,-0.70710678,0.70710678,0.70710678,-227.38961,353.44301)"
       id="use4089"
       style="fill:#000000;fill-opacity:1;fill-rule:nonzero;stroke:none" />
    <path
       d="m 256.88976,441.14172 a 26.574802,26.574802 0 1 1 -53.14961,0 26.574802,26.574802 0 1 1 53.14961,0 z"
       transform="translate(79.724414,124.01573)"
       id="use4075-8"
       style="fill:#000000;fill-opacity:1;fill-rule:nonzero;stroke:none" />
    <path
       d="m 487.20471,565.15747 c 0,48.92286 -19.82991,93.2142 -51.89053,125.27483"
       id="path4235"
       style="fill:none;stroke:#000000;stroke-width:3;stroke-linecap:square;stroke-linejoin:miter;stroke-miterlimit:4;stroke-opacity:1;stroke-dashoffset:0" />
    <path
       d="m 435.31418,690.4323 c -32.06062,32.06062 -76.35195,51.89053 -125.27481,51.89053"
       id="path4233"
       style="fill:none;stroke:#000000;stroke-width:3;stroke-linecap:square;stroke-linejoin:miter;stroke-miterlimit:4;stroke-opacity:1;stroke-dashoffset:0" />
    <path
       d="m 310.03937,742.32283 c -48.92286,0 -93.2142,-19.82991 -125.27482,-51.89053"
       id="path4231"
       style="fill:none;stroke:#000000;stroke-width:3;stroke-linecap:square;stroke-linejoin:miter;stroke-miterlimit:4;stroke-opacity:1;stroke-dashoffset:0" />
    <path
       d="M 184.76455,690.4323 C 152.70393,658.37167 132.87402,614.08033 132.87402,565.15747"
       id="path4229"
       style="fill:none;stroke:#000000;stroke-width:3;stroke-linecap:square;stroke-linejoin:miter;stroke-miterlimit:4;stroke-opacity:1;stroke-dashoffset:0" />
    <path
       d="m 132.87402,565.15747 c 0,-48.92287 19.82991,-93.21421 51.89053,-125.27483"
       id="path4227"
       style="fill:none;stroke:#000000;stroke-width:3;stroke-linecap:square;stroke-linejoin:miter;stroke-miterlimit:4;stroke-opacity:1;stroke-dashoffset:0" />
    <path
       d="m 184.76455,439.88264 c 32.06062,-32.06062 76.35196,-51.89053 125.27482,-51.89053"
       id="path4225"
       style="fill:none;stroke:#000000;stroke-width:3;stroke-linecap:square;stroke-linejoin:miter;stroke-miterlimit:4;stroke-opacity:1;stroke-dashoffset:0" />
    <path
       d="m 310.03937,387.99211 c 48.92286,0 93.21419,19.82991 125.27481,51.89053"
       id="path4223"
       style="fill:none;stroke:#000000;stroke-width:3;stroke-linecap:square;stroke-linejoin:miter;stroke-miterlimit:4;stroke-opacity:1;stroke-dashoffset:0" />
    <path
       d="m 435.31418,439.88264 c 32.06062,32.06063 51.89053,76.35197 51.89053,125.27483"
       id="path4175"
       style="fill:none;stroke:#000000;stroke-width:3;stroke-linecap:square;stroke-linejoin:miter;stroke-miterlimit:4;stroke-opacity:1;stroke-dashoffset:0" />
    <path
       d="m 247.40195,502.52006 c 16.03032,-16.03031 38.17599,-25.94526 62.63742,-25.94526"
       id="path4189"
       style="fill:none;stroke:#000000;stroke-width:3;stroke-linecap:square;stroke-linejoin:miter;stroke-miterlimit:4;stroke-opacity:1;stroke-dashoffset:0" />
    <path
       d="m 310.03937,476.5748 c 24.46143,0 46.6071,9.91495 62.63741,25.94526"
       id="path4187"
       style="fill:none;stroke:#000000;stroke-width:3;stroke-linecap:square;stroke-linejoin:miter;stroke-miterlimit:4;stroke-opacity:1;stroke-dashoffset:0" />
    <path
       d="m 372.67678,502.52006 c 16.03031,16.03031 25.94527,38.17598 25.94527,62.63741"
       id="path4197"
       style="fill:none;stroke:#000000;stroke-width:3;stroke-linecap:square;stroke-linejoin:miter;stroke-miterlimit:4;stroke-opacity:1;stroke-dashoffset:0" />
    <path
       d="m 398.62205,565.15747 c 0,24.46143 -9.91496,46.6071 -25.94527,62.63741"
       id="path4217"
       style="fill:none;stroke:#000000;stroke-width:3;stroke-linecap:square;stroke-linejoin:miter;stroke-miterlimit:4;stroke-opacity:1;stroke-dashoffset:0" />
    <path
       d="m 372.67678,627.79488 c -16.03031,16.03031 -38.17598,25.94526 -62.63741,25.94526"
       id="path4213"
       style="fill:none;stroke:#000000;stroke-width:3;stroke-linecap:square;stroke-linejoin:miter;stroke-miterlimit:4;stroke-opacity:1;stroke-dashoffset:0" />
    <path
       d="m 310.03937,653.74014 c -24.46143,0 -46.6071,-9.91495 -62.63742,-25.94526"
       id="path4211"
       style="fill:none;stroke:#000000;stroke-width:3;stroke-linecap:square;stroke-linejoin:miter;stroke-miterlimit:4;stroke-opacity:1;stroke-dashoffset:0" />
    <path
       d="M 247.40195,627.79488 C 231.37164,611.76457 221.45669,589.6189 221.45669,565.15747"
       id="path4209"
       style="fill:none;stroke:#000000;stroke-width:3;stroke-linecap:square;stroke-linejoin:miter;stroke-miterlimit:4;stroke-opacity:1;stroke-dashoffset:0" />
    <path
       d="m 221.45669,565.15747 c 0,-24.46143 9.91495,-46.6071 25.94526,-62.63741"
       id="path4178"
       style="fill:none;stroke:#000000;stroke-width:3;stroke-linecap:square;stroke-linejoin:miter;stroke-miterlimit:4;stroke-opacity:1;stroke-dashoffset:0" />
    <path
       d="m 132.87402,565.15746 88.58267,0"
       id="path4237"
       style="fill:none;stroke:#000000;stroke-width:3;stroke-linecap:butt;stroke-linejoin:miter;stroke-miterlimit:4;stroke-opacity:1;stroke-dasharray:none" />
    <path
       d="m 186.02362,441.14171 62.00788,62.00787"
       id="path4239"
       style="fill:none;stroke:#000000;stroke-width:3;stroke-linecap:butt;stroke-linejoin:miter;stroke-miterlimit:4;stroke-opacity:1;stroke-dasharray:none" />
    <path
       d="m 310.03937,387.9921 0,88.58268"
       id="path4241"
       style="fill:none;stroke:#000000;stroke-width:3;stroke-linecap:butt;stroke-linejoin:miter;stroke-miterlimit:4;stroke-opacity:1;stroke-dasharray:none" />
    <path
       d="m 434.05512,441.14171 -62.00788,62.00787"
       id="path4243"
       style="fill:none;stroke:#000000;stroke-width:3;stroke-linecap:butt;stroke-linejoin:miter;stroke-miterlimit:4;stroke-opacity:1;stroke-dasharray:none" />
    <path
       d="m 487.20472,565.15746 -88.58267,0"
       id="path4245"
       style="fill:none;stroke:#000000;stroke-width:3;stroke-linecap:butt;stroke-linejoin:miter;stroke-miterlimit:4;stroke-opacity:1;stroke-dasharray:none" />
    <path
       d="M 434.05512,689.17321 372.04724,627.16533"
       id="path4247"
       style="fill:none;stroke:#000000;stroke-width:3;stroke-linecap:butt;stroke-linejoin:miter;stroke-miterlimit:4;stroke-opacity:1;stroke-dasharray:none" />
    <path
       d="m 310.03937,742.32281 0,-88.58267"
       id="path4249"
       style="fill:none;stroke:#000000;stroke-width:3;stroke-linecap:butt;stroke-linejoin:miter;stroke-miterlimit:4;stroke-opacity:1;stroke-dasharray:none" />
    <path
       d="m 186.02362,689.17321 62.00788,-62.00788 62.00787,-62.00787"
       id="path4251"
       style="fill:none;stroke:#000000;stroke-width:3;stroke-linecap:butt;stroke-linejoin:miter;stroke-miterlimit:4;stroke-opacity:1;stroke-dasharray:none" />
    <path
       d="m 221.45669,565.15746 88.58268,0"
       id="path4253"
       style="fill:none;stroke:#000000;stroke-width:3;stroke-linecap:butt;stroke-linejoin:miter;stroke-miterlimit:4;stroke-opacity:1;stroke-dasharray:none" />
    <path
       d="m 248.0315,503.14958 62.00787,62.00788"
       id="path4255"
       style="fill:none;stroke:#000000;stroke-width:3;stroke-linecap:butt;stroke-linejoin:miter;stroke-miterlimit:4;stroke-opacity:1;stroke-dasharray:none" />
    <path
       d="m 310.03937,476.57478 0,88.58268"
       id="path4257"
       style="fill:none;stroke:#000000;stroke-width:3;stroke-linecap:butt;stroke-linejoin:miter;stroke-miterlimit:4;stroke-opacity:1;stroke-dasharray:none" />
    <path
       d="m 372.04724,503.14958 -62.00787,62.00788"
       id="path4259"
       style="fill:none;stroke:#000000;stroke-width:3;stroke-linecap:butt;stroke-linejoin:miter;stroke-miterlimit:4;stroke-opacity:1;stroke-dasharray:none" />
    <path
       d="m 398.62205,565.15746 -88.58268,0"
       id="path4261"
       style="fill:none;stroke:#000000;stroke-width:3;stroke-linecap:butt;stroke-linejoin:miter;stroke-miterlimit:4;stroke-opacity:1;stroke-dasharray:none" />
    <path
       d="m 310.03937,565.15746 62.00787,62.00787"
       id="path4263"
       style="fill:none;stroke:#000000;stroke-width:3;stroke-linecap:butt;stroke-linejoin:miter;stroke-miterlimit:4;stroke-opacity:1;stroke-dasharray:none" />
    <path
       d="m 310.03937,565.15746 0,88.58267"
       id="path4265"
       style="fill:none;stroke:#000000;stroke-width:3;stroke-linecap:butt;stroke-linejoin:miter;stroke-miterlimit:4;stroke-opacity:1;stroke-dasharray:none" />
    <path
       d="m 256.88976,441.14172 c 0,14.67686 -11.89795,26.57481 -26.5748,26.57481 -14.67686,0 -26.57481,-11.89795 -26.57481,-26.57481 0,-14.67685 11.89795,-26.5748 26.57481,-26.5748 14.67685,0 26.5748,11.89795 26.5748,26.5748 z"
       transform="translate(79.724413,-141.7323)"
       id="path4057-1"
       style="fill:#000000;fill-opacity:1;fill-rule:nonzero;stroke:none" />
    <use
       id="use4298"
       x="0"
       y="0"
       width="744.09448"
       height="1052.3622"
       xlink:href="#path4057-1" />
    <use
       transform="matrix(0.70710678,0.70710678,-0.70710678,0.70710678,490.4351,-53.700153)"
       id="use4300"
       x="0"
       y="0"
       width="744.09448"
       height="1052.3622"
       xlink:href="#path4057-1" />
    <use
       transform="matrix(0,1,-1,0,875.19682,255.11809)"
       id="use4302"
       x="0"
       y="0"
       width="744.09448"
       height="1052.3622"
       xlink:href="#path4057-1" />
    <use
       transform="matrix(-0.70710678,0.70710678,-0.70710678,-0.70710678,928.89698,745.55318)"
       id="use4304"
       x="0"
       y="0"
       width="744.09448"
       height="1052.3622"
       xlink:href="#path4057-1" />
    <use
       transform="matrix(-1,0,0,-1,620.07874,1130.3149)"
       id="use4306"
       x="0"
       y="0"
       width="744.09448"
       height="1052.3622"
       xlink:href="#path4057-1" />
    <use
       transform="matrix(-0.70710678,-0.70710678,0.70710678,-0.70710678,129.64364,1184.0151)"
       id="use4308"
       x="0"
       y="0"
       width="744.09448"
       height="1052.3622"
       xlink:href="#path4057-1" />
    <use
       transform="matrix(0,-1,1,0,-255.11809,875.19682)"
       id="use4310"
       x="0"
       y="0"
       width="744.09448"
       height="1052.3622"
       xlink:href="#path4057-1" />
    <use
       transform="matrix(0.70710678,-0.70710678,0.70710678,0.70710678,-308.81824,384.76173)"
       id="use4312"
       x="0"
       y="0"
       width="744.09448"
       height="1052.3622"
       xlink:href="#path4057-1" />
    <path
       d="m 44.291351,565.15747 c 0,-73.38429 29.74486,-139.8213 77.835789,-187.91223"
       id="path4329"
       style="fill:none;stroke:#000000;stroke-width:3;stroke-linecap:square;stroke-linejoin:miter;stroke-miterlimit:4;stroke-opacity:1;stroke-dashoffset:0" />
    <path
       d="m 122.12714,377.24524 c 48.09094,-48.09093 114.52794,-77.83579 187.91223,-77.83579"
       id="path4327"
       style="fill:none;stroke:#000000;stroke-width:3;stroke-linecap:square;stroke-linejoin:miter;stroke-miterlimit:4;stroke-opacity:1;stroke-dashoffset:0" />
    <path
       d="m 310.03937,299.40945 c 73.38429,0 139.82129,29.74486 187.91222,77.83579"
       id="path4357"
       style="fill:none;stroke:#000000;stroke-width:3;stroke-linecap:square;stroke-linejoin:miter;stroke-miterlimit:4;stroke-opacity:1;stroke-dashoffset:0" />
    <path
       d="m 497.95159,377.24524 c 48.09093,48.09093 77.83579,114.52794 77.83579,187.91223"
       id="path4355"
       style="fill:none;stroke:#000000;stroke-width:3;stroke-linecap:square;stroke-linejoin:miter;stroke-miterlimit:4;stroke-opacity:1;stroke-dashoffset:0" />
    <path
       d="m 575.78738,565.15747 c 0,73.38429 -29.74486,139.8213 -77.83579,187.91223"
       id="path4353"
       style="fill:none;stroke:#000000;stroke-width:3;stroke-linecap:square;stroke-linejoin:miter;stroke-miterlimit:4;stroke-opacity:1;stroke-dashoffset:0" />
    <path
       d="m 497.95159,753.0697 c -48.09093,48.09093 -114.52794,77.83579 -187.91222,77.83579"
       id="path4351"
       style="fill:none;stroke:#000000;stroke-width:3;stroke-linecap:square;stroke-linejoin:miter;stroke-miterlimit:4;stroke-opacity:1;stroke-dashoffset:0" />
    <path
       d="m 310.03937,830.90549 c -73.38429,0 -139.82129,-29.74486 -187.91223,-77.83579"
       id="path4349"
       style="fill:none;stroke:#000000;stroke-width:3;stroke-linecap:square;stroke-linejoin:miter;stroke-miterlimit:4;stroke-opacity:1;stroke-dashoffset:0" />
    <path
       d="M 122.12714,753.0697 C 74.036211,704.97877 44.291351,638.54176 44.291351,565.15747"
       id="path4322"
       style="fill:none;stroke:#000000;stroke-width:3;stroke-linecap:square;stroke-linejoin:miter;stroke-miterlimit:4;stroke-opacity:1;stroke-dashoffset:0" />
    <path
       d="m 44.291339,565.15746 88.582681,0"
       id="path4331"
       style="fill:none;stroke:#000000;stroke-width:3;stroke-linecap:butt;stroke-linejoin:miter;stroke-miterlimit:4;stroke-opacity:1;stroke-dasharray:none" />
    <path
       d="m 124.01575,379.13384 62.00787,62.00787"
       id="path4333"
       style="fill:none;stroke:#000000;stroke-width:3;stroke-linecap:butt;stroke-linejoin:miter;stroke-miterlimit:4;stroke-opacity:1;stroke-dasharray:none" />
    <path
       d="m 310.03937,299.40942 0,88.58268"
       id="path4335"
       style="fill:none;stroke:#000000;stroke-width:3;stroke-linecap:butt;stroke-linejoin:miter;stroke-miterlimit:4;stroke-opacity:1;stroke-dasharray:none" />
    <path
       d="m 496.06299,379.13384 -62.00787,62.00787"
       id="path4337"
       style="fill:none;stroke:#000000;stroke-width:3;stroke-linecap:butt;stroke-linejoin:miter;stroke-miterlimit:4;stroke-opacity:1;stroke-dasharray:none" />
    <path
       d="m 575.7874,565.15746 -88.58268,0"
       id="path4339"
       style="fill:none;stroke:#000000;stroke-width:3;stroke-linecap:butt;stroke-linejoin:miter;stroke-miterlimit:4;stroke-opacity:1;stroke-dasharray:none" />
    <path
       d="M 496.06299,751.18108 434.05512,689.17321"
       id="path4341"
       style="fill:none;stroke:#000000;stroke-width:3;stroke-linecap:butt;stroke-linejoin:miter;stroke-miterlimit:4;stroke-opacity:1;stroke-dasharray:none" />
    <path
       d="m 310.03937,830.90549 0,-88.58268"
       id="path4343"
       style="fill:none;stroke:#000000;stroke-width:3;stroke-linecap:butt;stroke-linejoin:miter;stroke-miterlimit:4;stroke-opacity:1;stroke-dasharray:none" />
    <path
       d="m 124.01575,751.18108 62.00787,-62.00787"
       id="path4345"
       style="fill:none;stroke:#000000;stroke-width:3;stroke-linecap:butt;stroke-linejoin:miter;stroke-miterlimit:4;stroke-opacity:1;stroke-dasharray:none" />
  </g>
</svg>
